<svg width="149" height="49" viewBox="0 0 149 49" fill="none" xmlns="http://www.w3.org/2000/svg">
<g clip-path="url(#clip0_348_55)">
<path d="M9.26 5.33C9.26 8.62 7.49 10.66 4.63 10.66C1.77 10.66 0 8.62 0 5.33C0 5.14 0 4.95 0.02 4.77C0.09 3.69 0.37 2.76 0.82 2.01C1.61 0.73 2.92 0 4.63 0C7.48 0 9.26 2.04 9.26 5.33Z" fill="#C6C6C6"/>
<path d="M8.5602 12.01V33.06H0.700195V12.01H8.5602Z" fill="#C6C6C6"/>
<path d="M9.62988 12.01V18.68H15.6599V28.38C17.0499 25.17 19.7899 22.94 23.5199 22.06V18.68H29.5599V12.01H9.62988Z" fill="#C6C6C6"/>
<path d="M26.6399 23.75C32.8699 23.75 36.8999 27.54 36.8999 33.4C36.8999 37.28 35.1299 40.24 32.1399 41.8C33.2099 42.56 34.5799 42.99 36.2599 42.99L33.2699 48.06C29.0299 48.06 26.1899 46.14 24.8999 42.96C19.6799 42.32 16.3799 38.72 16.3799 33.4C16.3799 27.54 20.4099 23.75 26.6399 23.75ZM29.8799 33.4C29.8799 30.96 28.6899 29.55 26.6399 29.55C24.5899 29.55 23.3999 30.95 23.3999 33.4C23.3999 35.85 24.5899 37.25 26.6399 37.25C28.6899 37.25 29.8799 35.84 29.8799 33.4Z" fill="#C6C6C6"/>
<path d="M48.5102 42.56L48.0502 41.71C47.0102 42.53 45.6702 43.05 44.1702 43.05C40.3802 43.05 37.9102 41.07 37.9102 37.07V28.52H43.7102V37.68C43.7102 38.75 44.4102 39.42 45.4802 39.42C46.5502 39.42 47.2502 38.75 47.2502 37.68V28.52H53.0502V42.56H48.5002H48.5102Z" fill="#C6C6C6"/>
<path d="M65.3401 42.56L64.9101 41.8C63.9001 42.56 62.5901 43.05 61.0001 43.05C56.9401 43.05 54.3101 40.09 54.3101 35.54C54.3101 30.99 56.9401 28.03 61.0001 28.03C62.1601 28.03 63.2301 28.3 64.0801 28.76V28.52H69.8801V42.56H65.3301H65.3401ZM62.5601 39.32C63.3201 39.32 64.0901 38.8 64.0901 37.73V33.33C64.0901 32.26 63.3301 31.74 62.5601 31.74C61.1301 31.74 60.2401 33.11 60.2401 35.53C60.2401 37.95 61.1301 39.32 62.5601 39.32Z" fill="#C6C6C6"/>
<path d="M82.1701 42.56L81.7401 41.8C80.7301 42.56 79.4201 43.05 77.8301 43.05C73.7701 43.05 71.1401 40.09 71.1401 35.54C71.1401 30.99 73.7701 28.03 77.8301 28.03C78.9901 28.03 80.0601 28.3 80.9101 28.76V23.02H86.7101V42.56H82.1601H82.1701ZM79.3901 39.32C80.1501 39.32 80.9201 38.8 80.9201 37.73V33.33C80.9201 32.26 80.1601 31.74 79.3901 31.74C77.9601 31.74 77.0701 33.11 77.0701 35.53C77.0701 37.95 77.9601 39.32 79.3901 39.32Z" fill="#C6C6C6"/>
<path d="M92.9902 28.51L93.4502 29.37C94.4902 28.54 95.8302 28.03 97.3302 28.03C101.12 28.03 103.59 30.01 103.59 33.4H97.7902C97.7902 32.33 97.0902 31.66 96.0202 31.66C94.9502 31.66 94.2502 32.33 94.2502 33.4V42.56H88.4502V28.52H93.0002L92.9902 28.51Z" fill="#C6C6C6"/>
<path d="M115 42.56L114.57 41.8C113.56 42.56 112.25 43.05 110.66 43.05C106.6 43.05 103.97 40.09 103.97 35.54C103.97 30.99 106.6 28.03 110.66 28.03C111.82 28.03 112.89 28.3 113.74 28.76V28.52H119.54V42.56H114.99H115ZM112.22 39.32C112.98 39.32 113.75 38.8 113.75 37.73V33.33C113.75 32.26 112.99 31.74 112.22 31.74C110.79 31.74 109.9 33.11 109.9 35.53C109.9 37.95 110.79 39.32 112.22 39.32Z" fill="#C6C6C6"/>
<path d="M125.83 28.51L126.29 29.37C127.33 28.54 128.67 28.03 130.17 28.03C133.96 28.03 136.43 30.01 136.43 34.01V42.56H130.63V33.4C130.63 32.33 129.93 31.66 128.86 31.66C127.79 31.66 127.09 32.33 127.09 33.4V42.56H121.29V28.52H125.84L125.83 28.51Z" fill="#C6C6C6"/>
<path d="M143.54 24.85V29.73H148.03V32.78H143.54V35.22C143.54 37.05 144.58 38.09 146.35 38.09C146.96 38.09 148.18 38.03 148.64 37.97V42.37C147.3 42.71 146.44 43.04 144.49 43.04C140.22 43.04 137.74 40.08 137.74 34.92V26.68L143.54 24.85Z" fill="#C6C6C6"/>
</g>
<defs>
<clipPath id="clip0_348_55">
<rect width="148.63" height="48.05" fill="white"/>
</clipPath>
</defs>
</svg>
